<svg xmlns="http://www.w3.org/2000/svg" viewBox="0 0 115.42 284.75"><title>12-05-2Asset 1</title><g id="Layer_2" data-name="Layer 2"><g id="Layer_1-2" data-name="Layer 1"><path d="M37.82,165.52a159.52,159.52,0,0,0,3.67-16.17C43.86,128.66,46.11,108,48,87.21a398.36,398.36,0,0,0-.19-58.83,71.77,71.77,0,0,0-2.1-9.6,19.1,19.1,0,0,1-.73-6.2,3.16,3.16,0,0,1,5.24-2.38c4.57,3.64,8.83,2.29,13.29.29Q74.5,5.57,85.46.62c3.26-1.47,5.73-.29,6.18,3.17,1.17,8.84,6.06,15.44,12.27,21.42a11.51,11.51,0,0,1,3.68,6.31c.82,8.44,1.08,16.94,1.43,25.42a176.54,176.54,0,0,1-3.25,45.18c-2.93,13.42-5.42,26.95-8.75,40.27-2.8,11.21-6.54,22.19-9.84,33.27-.27.88-.4,1.79-.82,3.75,5.17.44,10,.89,14.8,1.22,1.65.11,3.32-.22,5-.17,4.27.12,5.38,1.31,5.26,5.6-.08,2.6-.51,5.21-.37,7.79a19.17,19.17,0,0,0,2.85,10.76c2.51,3.6,1.92,5.6-1.34,8.73-12.42,11.92-25,23.72-37.3,35.72-6.79,6.61-13.43,13.39-19.83,20.38A98.61,98.61,0,0,0,46.86,281c-1.58,2.32-3.28,4.18-6.29,3.65-2.81-.5-3.34-2.83-4-5.25A431.38,431.38,0,0,0,20.93,226.6c-2.5-6.36-3.76-13.19-5.71-19.77-2.69-9.07-5.69-18-8.18-27.16q-3.92-14.37-7-29a7.15,7.15,0,0,1,2.1-6.14,7.05,7.05,0,0,1,6.36.58c7.41,5.07,14.48,10.64,21.76,15.93C32.26,162.51,34.49,163.58,37.82,165.52Zm27.65,20.33A59.47,59.47,0,0,1,67,177.07c2.53-7.48,5.79-14.73,8-22.3,3-10.39,5.44-21,7.91-31.51.52-2.24-.12-4.73.27-7,1.1-6.47,2.7-12.86,3.6-19.35.4-2.92-.76-6-.57-9C86.62,81.31,88,74.76,88,68.19c.16-12.52-.19-25.06-.53-37.59a99.06,99.06,0,0,0-1.36-13.42c-.86-5.2-2.91-6.19-8-4.52Q68.11,16,58,19.23c-4.87,1.58-4.9,1.82-4.75,7.08.43,14.91,1,29.83,1,44.74.06,33.53-5,66.52-11.29,99.35a4.3,4.3,0,0,1-4.35,4.27,4.17,4.17,0,0,1-1.78-.4A18,18,0,0,1,31.55,171c-5.57-4.4-11-9-16.59-13.32a28.67,28.67,0,0,0-5-2.47c-1,11.73,21.51,89.86,28.15,98.66,7.32-5,55.87-55.51,61-66.43C88.27,185.35,77.45,186.85,65.47,185.85ZM93.28,81.13c-1.22,8.59-.9,9.25,6,13.92C99.92,89.35,99.92,89.35,93.28,81.13Zm1.36-30.66c-1.75,6.59.08,10.12,8.32,15.73ZM62.94,239.15l5.44,6.62c3.28-3.71,3.6-6.26,1.11-8.44S64.85,235.58,62.94,239.15ZM83.35,230l1.78-.25a23.67,23.67,0,0,0,.23-6.67A6.44,6.44,0,0,0,82,219.24c-.71-.31-2.37,1.54-3.58,2.41Zm-32.48,21.4a8.89,8.89,0,0,0,.23,11.76C55.14,258.77,55.13,256.58,50.87,251.35ZM94.44,123.12A9.47,9.47,0,0,0,91,111.42C88.13,116.41,91.42,119,94.44,123.12Zm-2.19,98.57c2.22-4.24.74-7.56-1.28-11C87.56,213.77,87.56,213.77,92.25,221.69Zm8.29-140.48c-2-9.24-3.19-11-8.14-12.76Zm-2.14,119c-4.05,4.15-3.54,6.8,1.84,14.16C99.58,209.25,99.08,205.42,98.4,200.2ZM79.21,175.73c2-6.42,2-6.42-1.79-10.37a7.56,7.56,0,0,0,1.79,10.37Zm-2.53,62.1c1.53-5.44,1.36-7.33-1-9-.71-.5-2.2.1-4.17.27Zm-20.26,6.42c1,2.7,1.38,3.92,1.87,5.11.56,1.37,1.2,2.71,2,4.53C62.87,248,62.87,248,56.42,244.25Zm33-119.1c-2.67,5.63-2.67,5.63,2.69,9.75C91.1,131.2,90.26,128.17,89.43,125.15Zm5.24-86.38-1.41.75q3.64,5.68,7.27,11.38l1.36-.87Zm-1.37,59c-1.69,6.09-1.69,6.09,4.67,10.21C96.23,104.14,95,101.41,93.3,97.74ZM86.22,149.1l2-.25c1.44-3.71-1.42-6.43-2-9.67l-1.66.33ZM42.43,263.3c-1.3,4.14-2.16,6.71,2,9.05,1.73-3.14,1.28-5.44-2-9.05Zm62-69.37c-2.67,4.65-2.59,5,1.47,9.35-.46-2.91-.84-5.35-1.47-9.35ZM82.84,152.09c-2.85,3.42-3,6,2.35,7.91l-2.35-7.91ZM98.06,35.38l.56-.38L94,27.52l-1,.69Z"/></g></g></svg>