<?xml version="1.0"?>
<svg xmlns="http://www.w3.org/2000/svg" viewBox="0 0 512 512" width="512" height="512"><g id="Out_line" data-name="Out line"><path d="M131.56348,190.12451A128.65411,128.65411,0,0,1,128,160c0-64.62671,48.14624-118.21094,110.45166-126.79175L195.05566,120H160a8.00008,8.00008,0,0,0-8,8v32a8.00008,8.00008,0,0,0,8,8h30.11133L216,180.94434V200h16V176a7.99967,7.99967,0,0,0-4.42188-7.15527l-32-16A7.99934,7.99934,0,0,0,192,152H168V136h32a7.99979,7.99979,0,0,0,7.15527-4.42236l48-96a7.975,7.975,0,0,0,.834-3.57752L256,32a127.21136,127.21136,0,0,1,60.68628,15.32593L260.9541,70.27246A7.99963,7.99963,0,0,0,256,77.66992v48a8.00025,8.00025,0,0,0,6.86816,7.91944l51.10547,7.30078,22.43653,67.30957a7.9935,7.9935,0,0,0,9.53027,5.23144L375.4541,206.051a126.15252,126.15252,0,0,1-6.50781,14.23217l14.10742,7.54688A144.25578,144.25578,0,0,0,400,160c0-79.40186-64.59766-144-144-144S112,80.59814,112,160a144.67378,144.67378,0,0,0,4.00879,33.87549ZM384,160a128.50455,128.50455,0,0,1-3.15356,28.20984l-31.59937,7.902-21.65723-64.97168a8.00147,8.00147,0,0,0-6.458-5.38965L272,118.73145V83.02783l61.07959-25.14844A127.87493,127.87493,0,0,1,384,160Z"/><path d="M432,240H320a88.09957,88.09957,0,0,0-88,88v88H214.627A62.62781,62.62781,0,0,0,152,478.62744V488a8.00008,8.00008,0,0,0,8,8H352a8.00008,8.00008,0,0,0,8-8v-9.37256A62.62781,62.62781,0,0,0,297.37305,416H280V384h72a88.09957,88.09957,0,0,0,88-88V248A8.00008,8.00008,0,0,0,432,240ZM330.34375,445.65723A46.31947,46.31947,0,0,1,344,478.62744V480H168v-1.37256A46.627,46.627,0,0,1,214.627,432h82.7461A46.32371,46.32371,0,0,1,330.34375,445.65723ZM424,296a72.08124,72.08124,0,0,1-72,72H330.5376A87.95674,87.95674,0,0,0,368,296v-8H352v8a72.08124,72.08124,0,0,1-72,72h-8a8.00008,8.00008,0,0,0-8,8v40H248V328a72.08124,72.08124,0,0,1,72-72H424Z"/><path d="M208,352a8.00008,8.00008,0,0,0,8-8v-1.6001a8.00063,8.00063,0,0,0-6.4082-7.84033A72.18793,72.18793,0,0,1,152,264v-8H136v8a88.30469,88.30469,0,0,0,37.43555,72H152a72.08156,72.08156,0,0,1-72-72V224H192A71.46562,71.46562,0,0,1,243.419,245.60059l11.42578-11.20118A87.34624,87.34624,0,0,0,192,208H72a8.00008,8.00008,0,0,0-8,8v48a88.09957,88.09957,0,0,0,88,88Z"/></g></svg>
