<?xml version="1.0" encoding="utf-8"?>
<!-- Generator: Adobe Illustrator 23.0.5, SVG Export Plug-In . SVG Version: 6.00 Build 0)  -->
<svg version="1.1" id="Capa_1" xmlns="http://www.w3.org/2000/svg" xmlns:xlink="http://www.w3.org/1999/xlink" x="0px" y="0px"
	 viewBox="0 0 407.5 362" style="enable-background:new 0 0 407.5 362;" xml:space="preserve">
<g>
	<g>
		<g>
			<path d="M407,204.8L407,204.8L330,11.6c-1.6-4.1-6.3-6.1-10.4-4.5l0,0L7.5,131.5c-1.3,0.6-2.4,1.4-3.2,2.5
				c-2.6,1.3-4.2,4-4.3,6.9v208c0,4.4,3.6,8,8,8h336c4.4,0,8-3.6,8-8V235.3l50.5-20.1C406.6,213.6,408.6,208.9,407,204.8z
				 M336,340.9H16v-192h320V340.9z M133.5,133l134-53.4c12,12.6,28.5,19.7,45.9,19.8l13.4,33.6H133.5z M352,218.2V141
				c0-4.4-3.6-8-8-8h-0.1l-17-42.6c-0.2-0.4-0.4-0.7-0.7-1c-0.9-3.9-4.4-6.5-8.4-6.2c-16.1,1.5-31.9-5.3-41.9-18.1
				c-2.5-3.1-6.9-3.8-10.3-1.8c-0.4,0-0.8,0.1-1.1,0.2L101,128.7c-2,0.8-3.6,2.3-4.4,4.3H47L318.1,25l71,178.4L352,218.2z"/>
			<path d="M37.7,286.9c15.5,4.6,27.7,16.7,32.3,32.3c1,3.4,4.1,5.7,7.7,5.7c0.4,0,0.8-0.1,1.2-0.2c0.4,0.1,0.7,0.2,1.1,0.2h192
				c0.3,0,0.7-0.1,1-0.2c4,1,8-1.5,9-5.5l0,0c4.6-15.5,16.8-27.7,32.3-32.3c3.8-1.2,6.1-4.9,5.5-8.8c0.1-0.4,0.2-0.8,0.2-1.2v-64
				c0-0.4-0.1-0.8-0.2-1.2c0.6-3.9-1.7-7.7-5.5-8.8c-15.5-4.6-27.7-16.8-32.3-32.3c-1.2-3.8-5-6.1-8.9-5.5c-0.4-0.1-0.7-0.2-1.1-0.2
				H80c-0.4,0-0.8,0.1-1.2,0.2c-3.9-0.6-7.6,1.7-8.8,5.5c-4.6,15.5-16.8,27.7-32.3,32.3c-3.8,1.2-6.1,4.9-5.5,8.8
				c-0.1,0.4-0.2,0.8-0.2,1.2v64c0,0.4,0.1,0.7,0.2,1.1C31.6,282,33.9,285.8,37.7,286.9z M48,216.2c16.1-6.5,28.8-19.2,35.2-35.2
				h185.5c6.5,16.1,19.2,28.8,35.3,35.2v57.5c-16.1,6.5-28.8,19.2-35.2,35.2H83.2C76.7,292.8,64,280.1,48,273.7
				C48,273.7,48,216.2,48,216.2z"/>
			<path d="M176,292.9c26.5,0,48-21.5,48-48s-21.5-48-48-48s-48,21.5-48,48S149.5,292.9,176,292.9z M176,212.9c17.7,0,32,14.3,32,32
				s-14.3,32-32,32s-32-14.3-32-32S158.3,212.9,176,212.9z"/>
			<path d="M88,256.9c6.6,0,12-5.4,12-12s-5.4-12-12-12s-12,5.4-12,12C76,251.6,81.4,256.9,88,256.9z M88,240.9c2.2,0,4,1.8,4,4
				s-1.8,4-4,4s-4-1.8-4-4S85.8,240.9,88,240.9z"/>
			<path d="M264,256.9c6.6,0,12-5.4,12-12s-5.4-12-12-12s-12,5.4-12,12C252,251.6,257.4,256.9,264,256.9z M264,240.9
				c2.2,0,4,1.8,4,4s-1.8,4-4,4s-4-1.8-4-4S261.8,240.9,264,240.9z"/>
		</g>
	</g>
</g>
</svg>
